<svg width="580" height="175" viewBox="0 0 580 175" fill="none" xmlns="http://www.w3.org/2000/svg">
<rect x="6.55859" y="142.356" width="569" height="12" transform="rotate(-3.48169 6.55859 142.356)" fill="#FEFF01"/>
<g filter="url(#filter0_d)">
<rect x="7.28711" y="154.333" width="569" height="12" transform="rotate(-3.48169 7.28711 154.333)" fill="#FA4DA7"/>
</g>
<rect x="2.18555" y="70.4888" width="569" height="12" transform="rotate(-3.48169 2.18555 70.4888)" fill="#00CFD5"/>
<rect x="2.91406" y="82.4663" width="569" height="12" transform="rotate(-3.48169 2.91406 82.4663)" fill="#006490"/>
<rect x="3.64453" y="94.4448" width="569" height="12" transform="rotate(-3.48169 3.64453 94.4448)" fill="#FE5552"/>
<rect x="4.37109" y="106.422" width="569" height="12" transform="rotate(-3.48169 4.37109 106.422)" fill="#2E3482"/>
<rect x="5.10156" y="118.4" width="569" height="12" transform="rotate(-3.48169 5.10156 118.4)" fill="#97F849"/>
<rect x="5.83008" y="130.378" width="569" height="12" transform="rotate(-3.48169 5.83008 130.378)" fill="#006490"/>
<rect y="34.5552" width="569" height="12" transform="rotate(-3.48169 0 34.5552)" fill="#009F79"/>
<rect x="0.728516" y="46.5337" width="569" height="12" transform="rotate(-3.48169 0.728516 46.5337)" fill="#FFDB00"/>
<rect x="1.45703" y="58.5103" width="569" height="12" transform="rotate(-3.48169 1.45703 58.5103)" fill="#FF6600"/>
<defs>
<filter id="filter0_d" x="3.28711" y="119.778" width="576.679" height="54.533" filterUnits="userSpaceOnUse" color-interpolation-filters="sRGB">
<feFlood flood-opacity="0" result="BackgroundImageFix"/>
<feColorMatrix in="SourceAlpha" type="matrix" values="0 0 0 0 0 0 0 0 0 0 0 0 0 0 0 0 0 0 127 0"/>
<feOffset dy="4"/>
<feGaussianBlur stdDeviation="2"/>
<feColorMatrix type="matrix" values="0 0 0 0 0 0 0 0 0 0 0 0 0 0 0 0 0 0 0.25 0"/>
<feBlend mode="normal" in2="BackgroundImageFix" result="effect1_dropShadow"/>
<feBlend mode="normal" in="SourceGraphic" in2="effect1_dropShadow" result="shape"/>
</filter>
</defs>
</svg>
