<svg width="535" height="308" viewBox="0 0 535 308" fill="none" xmlns="http://www.w3.org/2000/svg">
<rect x="529.666" y="222.479" width="536" height="12" transform="rotate(-156.765 529.666 222.479)" fill="#FCD425"/>
<rect x="529.666" y="222.479" width="536" height="12" transform="rotate(-156.765 529.666 222.479)" fill="#FCD425"/>
<g filter="url(#filter0_d)">
<rect x="496.527" y="299.667" width="536" height="12" transform="rotate(-156.765 496.527 299.667)" fill="#FE5552"/>
</g>
<rect x="524.932" y="233.506" width="536" height="12" transform="rotate(-156.765 524.932 233.506)" fill="#0DB1B3"/>
<rect x="515.465" y="255.56" width="536" height="12" transform="rotate(-156.765 515.465 255.56)" fill="#FEFF01"/>
<rect x="510.73" y="266.586" width="536" height="12" transform="rotate(-156.765 510.73 266.586)" fill="#FA4DA7"/>
<rect x="501.262" y="288.639" width="536" height="12" transform="rotate(-156.765 501.262 288.639)" fill="#2E3482"/>
<rect x="505.996" y="277.614" width="536" height="12" transform="rotate(-156.765 505.996 277.614)" fill="#97F849"/>
<rect x="520.197" y="244.533" width="536" height="12" transform="rotate(-156.765 520.197 244.533)" fill="#006490"/>
<defs>
<filter id="filter0_d" x="0" y="77.188" width="505.262" height="230.479" filterUnits="userSpaceOnUse" color-interpolation-filters="sRGB">
<feFlood flood-opacity="0" result="BackgroundImageFix"/>
<feColorMatrix in="SourceAlpha" type="matrix" values="0 0 0 0 0 0 0 0 0 0 0 0 0 0 0 0 0 0 127 0"/>
<feOffset dy="4"/>
<feGaussianBlur stdDeviation="2"/>
<feColorMatrix type="matrix" values="0 0 0 0 0 0 0 0 0 0 0 0 0 0 0 0 0 0 0.25 0"/>
<feBlend mode="normal" in2="BackgroundImageFix" result="effect1_dropShadow"/>
<feBlend mode="normal" in="SourceGraphic" in2="effect1_dropShadow" result="shape"/>
</filter>
</defs>
</svg>
