<svg width="145" height="33" viewBox="0 0 145 33" fill="none" xmlns="http://www.w3.org/2000/svg">
<g filter="url(#filter0_i)">
<path d="M11.8796 8.368C13.4583 8.368 14.8876 8.73067 16.1676 9.456C17.469 10.1813 18.493 11.2267 19.2396 12.592C20.0076 13.936 20.3916 15.504 20.3916 17.296C20.3916 19.088 20.0076 20.6667 19.2396 22.032C18.493 23.3973 17.469 24.4533 16.1676 25.2C14.8876 25.9253 13.4583 26.288 11.8796 26.288C9.59696 26.288 7.89029 25.616 6.75963 24.272V26H0.967625V2.256H7.04763V10.16C8.22096 8.96533 9.83163 8.368 11.8796 8.368ZM10.5996 21.456C11.6663 21.456 12.541 21.0933 13.2236 20.368C13.9063 19.6213 14.2476 18.5973 14.2476 17.296C14.2476 16.016 13.9063 15.0133 13.2236 14.288C12.541 13.5627 11.6663 13.2 10.5996 13.2C9.53296 13.2 8.65829 13.5627 7.97563 14.288C7.29296 15.0133 6.95163 16.016 6.95163 17.296C6.95163 18.5973 7.29296 19.6213 7.97563 20.368C8.65829 21.0933 9.53296 21.456 10.5996 21.456ZM29.0096 10.736C29.6283 9.94667 30.4283 9.36 31.4096 8.976C32.4123 8.57067 33.5536 8.368 34.8336 8.368V13.84C34.279 13.776 33.8203 13.744 33.4576 13.744C32.1563 13.744 31.1323 14.096 30.3856 14.8C29.6603 15.504 29.2976 16.5813 29.2976 18.032V26H23.2176V8.656H29.0096V10.736ZM55.5224 8.656V26H49.7304V24.272C48.5997 25.616 46.893 26.288 44.6104 26.288C43.0317 26.288 41.5917 25.9253 40.2904 25.2C39.0104 24.4533 37.9864 23.3973 37.2184 22.032C36.4717 20.6667 36.0984 19.088 36.0984 17.296C36.0984 15.504 36.4717 13.936 37.2184 12.592C37.9864 11.2267 39.0104 10.1813 40.2904 9.456C41.5917 8.73067 43.0317 8.368 44.6104 8.368C46.6584 8.368 48.269 8.96533 49.4424 10.16V8.656H55.5224ZM45.8904 21.456C46.957 21.456 47.8317 21.0933 48.5144 20.368C49.197 19.6213 49.5384 18.5973 49.5384 17.296C49.5384 16.016 49.197 15.0133 48.5144 14.288C47.8317 13.5627 46.957 13.2 45.8904 13.2C44.8237 13.2 43.949 13.5627 43.2664 14.288C42.5837 15.0133 42.2424 16.016 42.2424 17.296C42.2424 18.5973 42.5837 19.6213 43.2664 20.368C43.949 21.0933 44.8237 21.456 45.8904 21.456ZM68.3004 26.288C66.3804 26.288 64.663 25.904 63.1484 25.136C61.6337 24.368 60.4497 23.3013 59.5964 21.936C58.7644 20.5707 58.3484 19.024 58.3484 17.296C58.3484 15.568 58.7644 14.032 59.5964 12.688C60.4497 11.3227 61.6337 10.2667 63.1484 9.52C64.663 8.752 66.3804 8.368 68.3004 8.368C70.263 8.368 71.959 8.79467 73.3884 9.648C74.8177 10.48 75.831 11.6427 76.4284 13.136L71.7244 15.536C70.935 13.9787 69.783 13.2 68.2684 13.2C67.1804 13.2 66.2737 13.5627 65.5484 14.288C64.8444 15.0133 64.4924 16.016 64.4924 17.296C64.4924 18.5973 64.8444 19.6213 65.5484 20.368C66.2737 21.0933 67.1804 21.456 68.2684 21.456C69.783 21.456 70.935 20.6773 71.7244 19.12L76.4284 21.52C75.831 23.0133 74.8177 24.1867 73.3884 25.04C71.959 25.872 70.263 26.288 68.3004 26.288ZM86.5271 19.92L84.7351 21.744V26H78.6551V2.256H84.7351V14.704L90.9431 8.656H98.1431L90.9431 16.08L98.7511 26H91.3911L86.5271 19.92ZM100.818 2.256H110.61V6.896H106.898V27.568H110.61V32.208H100.818V2.256Z" fill="#FF7062"/>
<path d="M112.968 8.656H119.048V26H112.968V8.656ZM116.008 6.736C114.898 6.736 114.002 6.42666 113.32 5.808C112.637 5.18933 112.296 4.42133 112.296 3.504C112.296 2.58667 112.637 1.81867 113.32 1.2C114.002 0.581333 114.898 0.271999 116.008 0.271999C117.117 0.271999 118.013 0.570666 118.696 1.168C119.378 1.744 119.72 2.49067 119.72 3.408C119.72 4.368 119.378 5.168 118.696 5.808C118.013 6.42666 117.117 6.736 116.008 6.736ZM134.167 25.296C133.655 25.616 133.026 25.8613 132.279 26.032C131.554 26.2027 130.775 26.288 129.943 26.288C127.682 26.288 125.943 25.7333 124.727 24.624C123.532 23.5147 122.935 21.8613 122.935 19.664V4.784H129.015V9.296H132.951V13.84H129.015V19.6C129.015 20.24 129.175 20.7307 129.495 21.072C129.815 21.4133 130.252 21.584 130.807 21.584C131.511 21.584 132.13 21.4027 132.663 21.04L134.167 25.296Z" fill="#00A2D3"/>
<path d="M134.931 32.208V27.568H138.643V6.896H134.931V2.256H144.723V32.208H134.931Z" fill="#FE5552"/>
</g>
<defs>
<filter id="filter0_i" x="0.966797" y="0.271973" width="143.755" height="33.936" filterUnits="userSpaceOnUse" color-interpolation-filters="sRGB">
<feFlood flood-opacity="0" result="BackgroundImageFix"/>
<feBlend mode="normal" in="SourceGraphic" in2="BackgroundImageFix" result="shape"/>
<feColorMatrix in="SourceAlpha" type="matrix" values="0 0 0 0 0 0 0 0 0 0 0 0 0 0 0 0 0 0 127 0" result="hardAlpha"/>
<feOffset dy="2"/>
<feGaussianBlur stdDeviation="1.5"/>
<feComposite in2="hardAlpha" operator="arithmetic" k2="-1" k3="1"/>
<feColorMatrix type="matrix" values="0 0 0 0 0 0 0 0 0 0 0 0 0 0 0 0 0 0 0.4 0"/>
<feBlend mode="normal" in2="shape" result="effect1_innerShadow"/>
</filter>
</defs>
</svg>
